<svg width="361" height="48" viewBox="0 0 361 48" fill="none" xmlns="http://www.w3.org/2000/svg">
<rect width="360" height="48" transform="translate(0.5)" fill="#FEFEFE"/>
<g clip-path="url(#clip0_1158_155122)">
<g clip-path="url(#clip1_1158_155122)">
<path fill-rule="evenodd" clip-rule="evenodd" d="M72.4243 27.846V27.8076C72.4243 25.609 74.1152 24.5983 76.5246 24.5983C77.3709 24.5906 78.2121 24.73 79.0107 25.0103V24.8426C79.0107 23.6595 78.2682 23.0032 76.8264 23.0032C75.8649 23.0042 74.9123 23.1878 74.0194 23.5445L73.2961 21.3698C74.5343 20.8071 75.8834 20.5304 77.2431 20.5603C78.819 20.5603 79.9591 20.977 80.6776 21.6859C81.3961 22.3949 81.7793 23.5445 81.7793 24.8953V30.7344H78.9963V29.647C78.6074 30.0706 78.1307 30.4041 77.5995 30.6242C77.0683 30.8442 76.4955 30.9456 75.9211 30.9212C74.005 30.9212 72.4291 29.8339 72.4291 27.846M79.0537 27.1849V26.7059C78.4723 26.452 77.844 26.323 77.2096 26.3275C75.9785 26.3275 75.2169 26.8065 75.2169 27.7166V27.755C75.2169 28.5262 75.8636 28.9764 76.7928 28.9764C78.1436 28.9764 79.0537 28.2435 79.0537 27.2089V27.1849Z" fill="black"/>
<path fill-rule="evenodd" clip-rule="evenodd" d="M83.0388 28.8183L84.8542 26.6675C86.0004 27.7099 87.4825 28.3065 89.0312 28.3489C90.2862 28.3489 91.0478 27.8699 91.0478 27.0412V27.0028C91.0478 26.2316 90.5688 25.8389 88.2313 25.2449C85.4147 24.536 83.5992 23.7648 83.5992 21.0201V20.9817C83.5992 18.4717 85.635 16.8144 88.4899 16.8144C90.3719 16.7827 92.2067 17.4039 93.6823 18.5723L92.0825 20.862C90.8466 20.0141 89.6299 19.4968 88.4516 19.4968C87.2732 19.4968 86.6553 20.0333 86.6553 20.7039V20.7422C86.6553 21.6523 87.2541 21.9493 89.6683 22.5577C92.504 23.2905 94.0991 24.2965 94.0991 26.7059V26.749C94.0991 29.4937 91.9867 31.0313 88.9689 31.0313C86.7883 31.0425 84.679 30.2554 83.0388 28.8183Z" fill="black"/>
<path fill-rule="evenodd" clip-rule="evenodd" d="M95.4644 16.2729H98.1899V22.2557H98.2474C98.5555 21.7623 98.983 21.3545 99.4903 21.0698C99.9976 20.7852 100.568 20.6329 101.15 20.6271C104.024 20.6271 104.776 22.2414 104.776 24.6699V30.7054H102.051V25.1633C102.051 23.549 101.572 22.7683 100.302 22.7683C98.827 22.7683 98.1899 23.5826 98.1899 25.5753V30.7198H95.4644V16.2729Z" fill="black"/>
<path d="M44.335 16.2729H41.322V30.7246H44.335V16.2729Z" fill="black"/>
<path fill-rule="evenodd" clip-rule="evenodd" d="M46.2175 20.905H48.8185V22.275H48.876C49.1989 21.7645 49.6481 21.3459 50.1801 21.0598C50.7121 20.7736 51.309 20.6296 51.9129 20.6416C54.787 20.6416 55.539 22.2558 55.539 24.6844V30.7246H52.8135V25.1777C52.8135 23.5635 52.3344 22.7827 51.0651 22.7827C49.5897 22.7827 48.9527 23.597 48.9527 25.5945V30.739H46.2271L46.2175 20.905Z" fill="black"/>
<path fill-rule="evenodd" clip-rule="evenodd" d="M64.2091 29.4696H64.1708C63.5385 30.533 62.4416 30.988 61.1531 30.988C58.1593 30.988 56.7031 28.4637 56.7031 25.719C56.7031 23.0796 58.1785 20.6319 61.1004 20.6319C61.673 20.6104 62.2418 20.7328 62.7548 20.9881C63.2678 21.2433 63.7085 21.6232 64.0367 22.0929H64.075V16.2729H66.8006V30.7246H64.2091V29.4696ZM61.8141 22.6725C60.0274 22.6725 59.4191 24.2101 59.4191 25.8052C59.4191 27.4003 60.128 28.957 61.8141 28.957C63.6008 28.957 64.1565 27.4003 64.1565 25.786C64.1565 24.1718 63.5816 22.6725 61.8141 22.6725Z" fill="black"/>
<path d="M71.1738 20.905H68.4482V30.7199H71.1738V20.905Z" fill="black"/>
<path fill-rule="evenodd" clip-rule="evenodd" d="M108.522 26.4709C108.598 28.2001 109.422 28.9569 110.96 28.9569C112.052 28.9569 112.938 28.2911 113.111 27.6875H115.506C114.739 30.0203 113.111 30.9879 110.859 30.9879C107.731 30.9879 105.792 28.8611 105.792 25.8242C105.792 22.8831 107.846 20.6414 110.859 20.6414C114.236 20.6414 115.889 23.4531 115.678 26.4709H108.522ZM112.957 24.7608C112.708 23.3956 112.114 22.6723 110.788 22.6723C110.5 22.6528 110.211 22.6921 109.939 22.7878C109.667 22.8836 109.417 23.0338 109.205 23.2292C108.993 23.4247 108.823 23.6613 108.706 23.9246C108.588 24.1879 108.526 24.4725 108.522 24.7608H112.957Z" fill="black"/>
<path d="M119.615 16.2729H116.89V30.7246H119.615V16.2729Z" fill="black"/>
<path fill-rule="evenodd" clip-rule="evenodd" d="M124.746 20.905H126.743V22.7109H124.746V27.5728C124.746 28.4829 124.975 28.7128 125.9 28.7128C126.183 28.7185 126.466 28.6928 126.743 28.6362V30.7438C126.214 30.8145 125.681 30.8449 125.148 30.8348C123.457 30.8348 122.02 30.4756 122.02 28.5021V22.7109H120.367V20.905H122.02V17.073H124.746V20.905Z" fill="black"/>
<path fill-rule="evenodd" clip-rule="evenodd" d="M129.813 26.4709C129.89 28.2001 130.714 28.9569 132.251 28.9569C133.348 28.9569 134.23 28.2911 134.402 27.6875H136.797C136.031 30.0203 134.402 30.9879 132.151 30.9879C129.023 30.9879 127.083 28.8611 127.083 25.8242C127.083 22.8831 129.138 20.6414 132.151 20.6414C135.533 20.6414 137.18 23.4531 136.97 26.4709H129.813ZM134.249 24.7608C134 23.3956 133.406 22.6723 132.079 22.6723C131.791 22.6528 131.503 22.6921 131.231 22.7878C130.959 22.8836 130.709 23.0338 130.497 23.2292C130.285 23.4247 130.115 23.6613 129.997 23.9246C129.88 24.1879 129.817 24.4725 129.813 24.7608H134.249Z" fill="black"/>
<path fill-rule="evenodd" clip-rule="evenodd" d="M138.11 20.9048H140.702V22.7298H140.74C141.01 22.1133 141.452 21.588 142.014 21.2175C142.576 20.8469 143.233 20.6468 143.906 20.6414C144.108 20.6436 144.308 20.6759 144.5 20.7372V23.2424C144.185 23.1795 143.864 23.1474 143.542 23.1466C141.525 23.1466 140.855 24.55 140.855 26.2984V30.7244H138.129L138.11 20.9048Z" fill="black"/>
<path d="M31.4498 26.6196H16.5V30.7199H31.4498V26.6196Z" fill="#E31F26"/>
<path d="M39.3489 26.6196H32.2261V30.7199H39.3489V26.6196Z" fill="#E31F26"/>
<path d="M39.344 16.2971H32.6475V20.3974H39.344V16.2971Z" fill="#E31F26"/>
<path d="M39.3485 21.5276H24.3269V25.6279H39.3485V21.5276Z" fill="#E31F26"/>
<path fill-rule="evenodd" clip-rule="evenodd" d="M71.3318 17.7102V17.7683H71.3899H71.3512L71.3318 17.7102Z" fill="#E31F26"/>
<path fill-rule="evenodd" clip-rule="evenodd" d="M71.0637 17.2023H71.126H71.1931C71.1068 17.2406 71.1308 17.2838 71.1691 17.3221V17.2981C71.1691 17.2981 71.241 17.2981 71.2553 17.2981C71.2266 17.3891 71.3559 17.3796 71.2553 17.4754L71.3224 17.5233C71.3224 17.5233 71.2697 17.5233 71.2505 17.5233C71.2781 17.5432 71.3038 17.5656 71.3272 17.5903C71.3479 17.6144 71.3597 17.6448 71.3607 17.6765C71.4373 17.6478 71.4086 17.6047 71.3607 17.5664C71.3128 17.5281 71.2841 17.4993 71.3607 17.4562C71.3468 17.4419 71.3368 17.4242 71.3317 17.4049C71.3267 17.3856 71.3268 17.3653 71.332 17.346C71.332 17.3029 71.332 17.2598 71.332 17.2311C71.332 17.2023 71.193 17.1401 71.0781 17.188" fill="#E31F26"/>
<path fill-rule="evenodd" clip-rule="evenodd" d="M70.5413 19.2908L70.5769 19.3213C70.5769 19.2908 70.5463 19.2857 70.5413 19.2908Z" fill="#E31F26"/>
<path fill-rule="evenodd" clip-rule="evenodd" d="M71.2837 17.1736L71.3091 17.2092C71.3091 17.2092 71.3091 17.1787 71.2837 17.1736Z" fill="#E31F26"/>
<path fill-rule="evenodd" clip-rule="evenodd" d="M71.5283 17.9017C71.4765 17.8684 71.422 17.8396 71.3654 17.8155C71.2952 17.7814 71.2183 17.7634 71.1403 17.7628C71.14 17.3888 70.9939 17.0297 70.7331 16.7616C70.7714 16.7616 70.8193 16.7616 70.8433 16.7616H70.8145L70.8577 16.8143H70.9247L70.8912 16.8383C70.8912 16.8383 70.9295 16.8383 70.9439 16.8383L70.9008 16.867C70.9282 16.8516 70.9599 16.8456 70.991 16.8499C71.0222 16.8542 71.0511 16.8687 71.0732 16.891H71.1403H71.2073C71.1786 16.9533 71.0684 16.891 71.1451 16.958L71.0397 16.9868C71.102 17.0203 71.0397 17.0538 71.102 17.073C71.1642 17.0922 71.1019 17.0107 71.1786 17.0107C71.0876 17.1017 71.2409 17.0634 71.3031 17.097C71.3654 17.1305 71.3031 17.0538 71.2265 17.0634C71.1499 17.073 71.2744 17.0347 71.2744 17.0203H71.2025L71.2648 16.9772L71.1834 16.9485C71.2648 16.9101 71.1834 16.8958 71.26 16.8718C71.2073 16.8718 71.26 16.7952 71.1498 16.8095C71.1786 16.7521 71.2313 16.8095 71.2217 16.7808C71.0773 16.6636 70.9485 16.5284 70.8385 16.3784H70.8768L70.7714 16.4168C70.7874 16.3768 70.7874 16.3322 70.7714 16.2922C70.7649 16.2823 70.756 16.2742 70.7455 16.2686C70.7351 16.263 70.7234 16.2601 70.7116 16.2601C70.6997 16.2601 70.688 16.263 70.6776 16.2686C70.6671 16.2742 70.6582 16.2823 70.6517 16.2922C70.6517 16.2922 70.6517 16.2683 70.6517 16.2635C70.6517 16.2587 70.5942 16.2156 70.5607 16.1773C70.5286 16.1358 70.4854 16.1042 70.4361 16.0862C70.393 16.1437 70.3691 16.1102 70.3451 16.0862C70.3212 16.0623 70.2828 16.0431 70.2445 16.1294L70.2733 16.0958C70.2733 16.1533 70.1918 16.206 70.1727 16.2491C70.1794 16.1806 70.1794 16.1116 70.1727 16.0431V16.0958V15.9952C70.0817 16.1006 70.0433 16.0671 70.0002 16.024C69.9821 16.0022 69.9611 15.9829 69.938 15.9665C69.938 15.9665 69.8949 15.9665 69.8709 16.0144C69.847 16.0623 69.8709 15.9905 69.8709 15.9809C69.8709 15.9713 69.7847 16.0479 69.7512 16.0815C69.7545 16.0384 69.7693 15.997 69.7943 15.9617C69.7511 15.9378 69.6937 15.9617 69.6362 15.9904C69.6098 16.0022 69.5812 16.0083 69.5524 16.0083C69.5235 16.0083 69.4949 16.0022 69.4685 15.9904C69.4685 16.0623 69.4973 16.0767 69.4685 16.1341C69.4398 16.1916 69.4063 16.0671 69.435 16.0288C69.3823 15.9713 69.32 16.0288 69.2578 16.0527C69.2311 16.0793 69.1986 16.0992 69.1628 16.1109C69.127 16.1225 69.089 16.1256 69.0518 16.1198C69.0278 16.2156 69.0518 16.2252 69.0183 16.3114C69.0183 16.2587 68.9177 16.182 68.9656 16.1485V16.0958C68.8698 16.1341 68.7357 16.2012 68.7884 16.3545C68.7165 16.2683 68.7596 16.3545 68.6925 16.3257C68.7261 16.4215 68.6494 16.3593 68.6399 16.388V16.4647C68.6266 16.4648 68.6134 16.4624 68.6011 16.4575C68.5887 16.4525 68.5775 16.4452 68.568 16.4359L68.6207 16.4934C68.5968 16.5173 68.5393 16.4359 68.5201 16.4934L68.568 16.5269C68.5249 16.5269 68.568 16.6131 68.4866 16.5652C68.362 16.5269 68.4387 16.685 68.362 16.6994L68.4722 16.7569C68.4722 16.8239 68.4339 16.7569 68.3956 16.7569C68.3572 16.7569 68.3381 16.7569 68.2998 16.8095C68.2614 16.8622 68.3333 16.8479 68.362 16.8718L68.3093 16.9006L68.2662 16.8383C68.2861 16.8588 68.2973 16.8863 68.2973 16.9149C68.2973 16.9435 68.2861 16.971 68.2662 16.9916C68.2423 17.0299 68.2135 17.0682 68.2662 17.1209C68.2231 17.1209 68.204 17.0682 68.18 17.0778C68.1561 17.0874 68.1369 17.1688 68.1465 17.2215C68.1561 17.2742 68.1752 17.3269 68.1465 17.3556C68.1222 17.3801 68.1033 17.4093 68.091 17.4415C68.0786 17.4736 68.073 17.508 68.0746 17.5424C68.0768 17.6138 68.0671 17.685 68.0459 17.7532H68.0794L68.0555 17.849C68.1321 17.8729 68.1034 17.94 68.1944 17.9687C68.1657 17.9711 68.1369 17.9711 68.1082 17.9687C68.1082 18.0071 68.1656 18.0454 68.1321 18.0789H68.0986C68.0917 18.1298 68.0917 18.1813 68.0986 18.2322C68.1056 18.2539 68.1175 18.2738 68.1332 18.2904C68.149 18.307 68.1682 18.3198 68.1896 18.328C68.1896 18.3567 68.1513 18.3759 68.113 18.3998C68.0746 18.4238 68.18 18.4717 68.2471 18.4909C68.2372 18.5118 68.2243 18.5312 68.2087 18.5483H68.2902C68.2902 18.5483 68.2327 18.5819 68.2231 18.6058C68.2481 18.6097 68.2715 18.6209 68.2902 18.6379C68.3089 18.6549 68.3222 18.6771 68.3285 18.7016C68.3382 18.7385 68.3527 18.7739 68.3716 18.807L68.4004 18.7783C68.4387 18.7783 68.4004 18.8501 68.3716 18.8501C68.3429 18.8501 68.4482 18.9268 68.5057 18.9411C68.5714 18.9458 68.6329 18.9748 68.6782 19.0225C68.6351 19.0848 68.6782 19.0992 68.7069 19.1184C68.7357 19.1375 68.774 19.1471 68.7357 19.2237C68.8123 19.2237 68.8171 19.3052 68.9081 19.2477C68.9081 19.2477 68.9081 19.2764 68.9081 19.2716C68.9081 19.2669 69.0087 19.3387 69.0853 19.3291V19.377C69.1524 19.2908 69.2482 19.377 69.3057 19.2621C69.3057 19.286 69.2769 19.3052 69.2626 19.3195C69.2626 19.4297 69.3344 19.286 69.3727 19.3195C69.411 19.3531 69.3727 19.3818 69.3727 19.3962C69.3727 19.4105 69.5308 19.468 69.6314 19.4537L69.7799 19.4297C69.8289 19.42 69.8794 19.42 69.9284 19.4297C69.9859 19.4297 69.8997 19.3195 69.9667 19.3195C70.0338 19.3195 69.9667 19.4345 69.9955 19.4489C70.0194 19.377 70.0338 19.3914 70.0769 19.3914C70.12 19.3914 70.0769 19.4489 70.0769 19.4776C70.0769 19.5064 70.12 19.4776 70.1487 19.4537C70.1775 19.4297 70.2014 19.4106 70.2397 19.4537C70.2352 19.4299 70.2352 19.4055 70.2397 19.3818C70.2397 19.3291 70.3068 19.3387 70.3499 19.3531C70.393 19.3674 70.4313 19.3914 70.4265 19.3531C70.4218 19.3147 70.4265 19.3291 70.4265 19.3291C70.4346 19.3253 70.4435 19.3233 70.4524 19.3232C70.4614 19.3231 70.4703 19.3249 70.4784 19.3285C70.4866 19.3322 70.4939 19.3375 70.4999 19.3442C70.5058 19.351 70.5102 19.3589 70.5128 19.3674C70.5128 19.3339 70.5128 19.2908 70.5128 19.2764V19.3339C70.5128 19.3339 70.5128 19.2764 70.5128 19.2621L70.4792 19.2381C70.5319 19.2716 70.5223 19.1327 70.5798 19.2381H70.6613C70.6613 19.1806 70.6613 19.1279 70.69 19.1232C70.7762 19.219 70.7858 19.0848 70.8337 19.0657V19.0992C70.8337 19.0273 70.9151 18.9795 70.8912 18.9747C70.8672 18.9699 70.9774 18.9363 70.9918 18.9747C70.9918 18.9363 71.0397 18.8836 70.9918 18.8262H71.0492H71.1115C71.0109 18.7016 71.2313 18.7543 71.1115 18.6585C71.1546 18.6585 71.1786 18.6585 71.2169 18.6585C71.2081 18.6468 71.2017 18.6334 71.1984 18.6191C71.195 18.6048 71.1947 18.5899 71.1974 18.5755C71.2001 18.5611 71.2058 18.5474 71.2141 18.5353C71.2224 18.5232 71.2332 18.5129 71.2457 18.5052C71.2792 18.4621 71.2457 18.3759 71.2457 18.3136L71.3654 18.3424C71.3654 18.2993 71.2744 18.2609 71.3079 18.237C71.3415 18.213 71.3319 18.237 71.3367 18.237C71.3415 18.237 71.3702 18.1651 71.4037 18.146C71.3319 18.0693 71.375 18.0406 71.2887 17.9783C71.4037 17.9783 71.3223 18.0454 71.4325 18.031C71.5426 18.0166 71.4325 17.8777 71.4037 17.7915C71.4275 17.7869 71.4518 17.7869 71.4756 17.7915" fill="#E31F26"/>
</g>
</g>
<defs>
<clipPath id="clip0_1158_155122">
<rect width="156" height="32" fill="white" transform="translate(16.5 8)"/>
</clipPath>
<clipPath id="clip1_1158_155122">
<rect width="128" height="15.0312" fill="white" transform="translate(16.5 16)"/>
</clipPath>
</defs>
</svg>
