<svg width="192" height="64" viewBox="0 0 192 64" fill="none" xmlns="http://www.w3.org/2000/svg">
    <g clip-path="url(#clip0_868_32317)">
        <path fill-rule="evenodd" clip-rule="evenodd"
            d="M83.8867 38.1261V38.0675C83.8867 34.7032 86.4231 33.1567 90.0372 33.1567C91.3066 33.1449 92.5684 33.3582 93.7662 33.7871V33.5305C93.7662 31.7202 92.6525 30.716 90.4898 30.716C89.0475 30.7174 87.6187 30.9985 86.2793 31.5442L85.1944 28.2167C87.0517 27.3556 89.0753 26.9322 91.1149 26.978C93.4788 26.978 95.1889 27.6156 96.2666 28.7004C97.3444 29.7851 97.9192 31.5442 97.9192 33.6112V42.5458H93.7446V40.882C93.1614 41.5301 92.4463 42.0404 91.6495 42.3772C90.8528 42.7139 89.9935 42.869 89.1318 42.8317C86.2578 42.8317 83.8939 41.1679 83.8939 38.1261M93.8309 37.1147V36.3817C92.9587 35.9931 92.0163 35.7958 91.0646 35.8027C89.218 35.8027 88.0756 36.5356 88.0756 37.9283V37.9869C88.0756 39.1669 89.0456 39.8559 90.4395 39.8559C92.4657 39.8559 93.8309 38.7345 93.8309 37.1513V37.1147Z"
            fill="black" />
        <path fill-rule="evenodd" clip-rule="evenodd"
            d="M99.8081 39.6141L102.531 36.3232C104.25 37.9182 106.474 38.831 108.797 38.8958C110.679 38.8958 111.822 38.1629 111.822 36.8949V36.8363C111.822 35.6562 111.103 35.0552 107.597 34.1463C103.372 33.0616 100.649 31.8815 100.649 27.6817V27.6231C100.649 23.7824 103.702 21.2464 107.985 21.2464C110.808 21.1979 113.56 22.1484 115.773 23.9363L113.374 27.4398C111.52 26.1425 109.695 25.3509 107.927 25.3509C106.16 25.3509 105.233 26.1718 105.233 27.198V27.2566C105.233 28.6492 106.131 29.1036 109.752 30.0345C114.006 31.1559 116.399 32.6951 116.399 36.3818V36.4478C116.399 40.6476 113.23 43.0004 108.703 43.0004C105.432 43.0176 102.268 41.8131 99.8081 39.6141Z"
            fill="black" />
        <path fill-rule="evenodd" clip-rule="evenodd"
            d="M118.447 20.4177H122.535V29.5723H122.621C123.084 28.8173 123.725 28.1932 124.486 27.7577C125.247 27.3221 126.103 27.0892 126.975 27.0802C131.287 27.0802 132.415 29.5503 132.415 33.2664V42.5015H128.326V34.0213C128.326 31.5512 127.608 30.3565 125.704 30.3565C123.491 30.3565 122.535 31.6026 122.535 34.6516V42.5235H118.447V20.4177Z"
            fill="black" />
        <path d="M41.7523 20.4177H37.2329V42.5309H41.7523V20.4177Z" fill="black" />
        <path fill-rule="evenodd" clip-rule="evenodd"
            d="M44.5762 27.5053H48.4777V29.6015H48.5639C49.0483 28.8203 49.7221 28.1799 50.5201 27.7421C51.3181 27.3042 52.2133 27.0838 53.1193 27.1021C57.4303 27.1021 58.5584 29.5722 58.5584 33.2882V42.5308H54.4701V34.0432C54.4701 31.5731 53.7515 30.3784 51.8475 30.3784C49.6345 30.3784 48.6789 31.6244 48.6789 34.6808V42.5527H44.5906L44.5762 27.5053Z"
            fill="black" />
        <path fill-rule="evenodd" clip-rule="evenodd"
            d="M71.5637 40.6105H71.5062C70.5578 42.2377 68.9124 42.934 66.9796 42.934C62.4889 42.934 60.3047 39.0713 60.3047 34.8715C60.3047 30.833 62.5177 27.0876 66.9006 27.0876C67.7595 27.0546 68.6127 27.242 69.3822 27.6326C70.1517 28.0231 70.8128 28.6044 71.3051 29.3231H71.3625V20.4177H75.4508V42.5309H71.5637V40.6105ZM67.9712 30.2099C65.2911 30.2099 64.3786 32.5627 64.3786 35.0034C64.3786 37.4442 65.442 39.8263 67.9712 39.8263C70.6512 39.8263 71.4847 37.4442 71.4847 34.9741C71.4847 32.5041 70.6225 30.2099 67.9712 30.2099Z"
            fill="black" />
        <path d="M82.0107 27.5054H77.9224V42.5235H82.0107V27.5054Z" fill="black" />
        <path fill-rule="evenodd" clip-rule="evenodd"
            d="M138.033 36.0221C138.147 38.668 139.383 39.8261 141.69 39.8261C143.328 39.8261 144.657 38.8073 144.916 37.8838H148.508C147.359 41.4532 144.916 42.9338 141.539 42.9338C136.847 42.9338 133.937 39.6795 133.937 35.0326C133.937 30.5323 137.019 27.1021 141.539 27.1021C146.604 27.1021 149.083 31.4045 148.767 36.0221H138.033ZM144.686 33.4054C144.312 31.3165 143.421 30.2098 141.431 30.2098C140.999 30.1798 140.566 30.24 140.158 30.3865C139.75 30.533 139.376 30.7628 139.058 31.0618C138.74 31.3609 138.485 31.723 138.309 32.1259C138.132 32.5288 138.038 32.9642 138.033 33.4054H144.686Z"
            fill="black" />
        <path d="M154.673 20.4177H150.585V42.5309H154.673V20.4177Z" fill="black" />
        <path fill-rule="evenodd" clip-rule="evenodd"
            d="M162.368 27.5052H165.365V30.2684H162.368V37.7079C162.368 39.1005 162.713 39.4523 164.1 39.4523C164.525 39.461 164.949 39.4216 165.365 39.335V42.56C164.572 42.6681 163.772 42.7147 162.972 42.6993C160.436 42.6993 158.28 42.1496 158.28 39.1298V30.2684H155.801V27.5052H158.28V21.6416H162.368V27.5052Z"
            fill="black" />
        <path fill-rule="evenodd" clip-rule="evenodd"
            d="M169.97 36.0221C170.085 38.668 171.321 39.8261 173.627 39.8261C175.273 39.8261 176.595 38.8073 176.853 37.8838H180.446C179.296 41.4532 176.853 42.9338 173.476 42.9338C168.784 42.9338 165.875 39.6795 165.875 35.0326C165.875 30.5323 168.957 27.1021 173.476 27.1021C178.549 27.1021 181.021 31.4045 180.705 36.0221H169.97ZM176.623 33.4054C176.25 31.3165 175.359 30.2098 173.369 30.2098C172.937 30.1798 172.504 30.24 172.096 30.3865C171.688 30.533 171.313 30.7628 170.995 31.0618C170.677 31.3609 170.422 31.723 170.246 32.1259C170.07 32.5288 169.976 32.9642 169.97 33.4054H176.623Z"
            fill="black" />
        <path fill-rule="evenodd" clip-rule="evenodd"
            d="M182.415 27.5052H186.302V30.2977H186.36C186.765 29.3543 187.428 28.5506 188.271 27.9836C189.114 27.4165 190.1 27.1104 191.109 27.1021C191.411 27.1055 191.712 27.1549 192 27.2486V31.082C191.527 30.9858 191.045 30.9367 190.563 30.9354C187.538 30.9354 186.532 33.0829 186.532 35.7582V42.5307H182.444L182.415 27.5052Z"
            fill="black" />
        <path d="M22.4247 36.2495H0V42.5236H22.4247V36.2495Z" fill="#E31F26" />
        <path d="M34.2731 36.2495H23.5889V42.5236H34.2731V36.2495Z" fill="#E31F26" />
        <path d="M34.2659 20.4546H24.2212V26.7287H34.2659V20.4546Z" fill="#E31F26" />
        <path d="M34.2727 28.4583H11.7402V34.7323H34.2727V28.4583Z" fill="#E31F26" />
        <path fill-rule="evenodd" clip-rule="evenodd"
            d="M82.248 22.6169V22.7059H82.3352H82.2771L82.248 22.6169Z" fill="#E31F26" />
        <path fill-rule="evenodd" clip-rule="evenodd"
            d="M81.8457 21.8399H81.9391H82.0397C81.9104 21.8985 81.9463 21.9645 82.0038 22.0231V21.9865C82.0038 21.9865 82.1116 21.9865 82.1331 21.9865C82.09 22.1257 82.284 22.111 82.1331 22.2576L82.2337 22.3309C82.2337 22.3309 82.1547 22.3309 82.1259 22.3309C82.1673 22.3614 82.2058 22.3958 82.2409 22.4335C82.2719 22.4704 82.2897 22.5169 82.2912 22.5655C82.4061 22.5215 82.363 22.4555 82.2912 22.3969C82.2193 22.3383 82.1762 22.2943 82.2912 22.2283C82.2703 22.2065 82.2553 22.1794 82.2477 22.1498C82.2402 22.1203 82.2403 22.0892 82.2481 22.0597C82.2481 21.9938 82.2481 21.9278 82.2481 21.8838C82.2481 21.8399 82.0397 21.7446 81.8672 21.8179"
            fill="#E31F26" />
        <path fill-rule="evenodd" clip-rule="evenodd"
            d="M81.062 25.0356L81.1154 25.0823C81.1154 25.0356 81.0696 25.0278 81.062 25.0356Z"
            fill="#E31F26" />
        <path fill-rule="evenodd" clip-rule="evenodd"
            d="M82.1758 21.7957L82.2139 21.8502C82.2139 21.8502 82.2139 21.8034 82.1758 21.7957Z"
            fill="#E31F26" />
        <path fill-rule="evenodd" clip-rule="evenodd"
            d="M82.5424 22.9097C82.4647 22.8588 82.383 22.8147 82.2981 22.7778C82.1928 22.7257 82.0774 22.6982 81.9604 22.6972C81.96 22.1249 81.7409 21.5754 81.3497 21.1653C81.4072 21.1653 81.479 21.1653 81.5149 21.1653H81.4718L81.5365 21.2459H81.6371L81.5868 21.2826C81.5868 21.2826 81.6443 21.2826 81.6658 21.2826L81.6011 21.3265C81.6422 21.3029 81.6898 21.2937 81.7366 21.3004C81.7833 21.307 81.8266 21.3291 81.8598 21.3632H81.9604H82.061C82.0179 21.4585 81.8526 21.3632 81.9676 21.4658L81.8095 21.5098C81.9029 21.5611 81.8095 21.6124 81.9029 21.6417C81.9963 21.671 81.9029 21.5464 82.0179 21.5464C81.8814 21.6857 82.1113 21.6271 82.2047 21.6784C82.2981 21.7297 82.2047 21.6124 82.0898 21.627C81.9748 21.6417 82.1616 21.5831 82.1616 21.5611H82.0538L82.1472 21.4951L82.0251 21.4511C82.1472 21.3925 82.0251 21.3705 82.14 21.3339C82.061 21.3339 82.14 21.2166 81.9748 21.2386C82.0179 21.1506 82.0969 21.2386 82.0826 21.1946C81.866 21.0152 81.6728 20.8083 81.5077 20.5789H81.5652L81.4072 20.6376C81.4312 20.5764 81.4312 20.5082 81.4072 20.447C81.3973 20.4319 81.384 20.4195 81.3683 20.4109C81.3526 20.4023 81.3351 20.3978 81.3174 20.3978C81.2996 20.3978 81.2821 20.4023 81.2664 20.4109C81.2507 20.4195 81.2374 20.4319 81.2275 20.447C81.2275 20.447 81.2275 20.4104 81.2275 20.403C81.2275 20.3957 81.1413 20.3297 81.091 20.2711C81.0429 20.2076 80.9781 20.1593 80.9042 20.1318C80.8395 20.2198 80.8036 20.1685 80.7677 20.1318C80.7318 20.0952 80.6743 20.0659 80.6168 20.1978L80.6599 20.1465C80.6599 20.2345 80.5378 20.3151 80.509 20.381C80.519 20.2762 80.519 20.1707 80.509 20.0659V20.1465V19.9926C80.3725 20.1538 80.315 20.1025 80.2503 20.0366C80.2231 20.0032 80.1917 19.9736 80.157 19.9486C80.157 19.9486 80.0923 19.9486 80.0564 20.0219C80.0204 20.0952 80.0564 19.9853 80.0564 19.9706C80.0564 19.9559 79.927 20.0732 79.8767 20.1245C79.8817 20.0586 79.904 19.9953 79.9414 19.9413C79.8767 19.9046 79.7905 19.9413 79.7043 19.9852C79.6647 20.0032 79.6219 20.0125 79.5785 20.0125C79.5352 20.0125 79.4924 20.0032 79.4528 19.9852C79.4528 20.0952 79.4959 20.1172 79.4528 20.2051C79.4097 20.2931 79.3594 20.1025 79.4025 20.0439C79.3235 19.9559 79.2301 20.0439 79.1367 20.0805C79.0967 20.1212 79.0479 20.1517 78.9942 20.1695C78.9405 20.1873 78.8835 20.192 78.8277 20.1831C78.7918 20.3297 78.8277 20.3444 78.7774 20.4763C78.7774 20.3957 78.6265 20.2784 78.6984 20.2271V20.1465C78.5547 20.2051 78.3535 20.3078 78.4325 20.5423C78.3248 20.4104 78.3894 20.5423 78.2888 20.4983C78.3391 20.6449 78.2242 20.5496 78.2098 20.5936V20.7109C78.1899 20.7112 78.1701 20.7074 78.1516 20.6999C78.1331 20.6923 78.1162 20.6811 78.102 20.6669L78.1811 20.7548C78.1451 20.7915 78.0589 20.6669 78.0302 20.7548L78.102 20.8061C78.0373 20.8061 78.102 20.9381 77.9799 20.8648C77.7931 20.8061 77.908 21.048 77.793 21.07L77.9583 21.158C77.9583 21.2606 77.9008 21.158 77.8433 21.158C77.7859 21.158 77.7571 21.158 77.6996 21.2386C77.6422 21.3192 77.7499 21.2972 77.793 21.3339L77.714 21.3778L77.6493 21.2826C77.6792 21.314 77.6959 21.3561 77.6959 21.3998C77.6959 21.4436 77.6792 21.4857 77.6493 21.5171C77.6134 21.5757 77.5703 21.6344 77.6493 21.715C77.5847 21.715 77.5559 21.6344 77.52 21.649C77.4841 21.6637 77.4553 21.7883 77.4697 21.8689C77.4841 21.9496 77.5128 22.0302 77.4697 22.0742C77.4333 22.1116 77.405 22.1563 77.3865 22.2055C77.3679 22.2548 77.3596 22.3073 77.362 22.36C77.3653 22.4692 77.3507 22.5782 77.3188 22.6825H77.3691L77.3332 22.8291C77.4481 22.8657 77.4051 22.9684 77.5416 23.0123C77.4985 23.0159 77.4553 23.0159 77.4123 23.0123C77.4123 23.071 77.4985 23.1296 77.4482 23.1809H77.3979C77.3875 23.2587 77.3875 23.3376 77.3979 23.4155C77.4085 23.4487 77.4262 23.4792 77.4498 23.5045C77.4735 23.5299 77.5024 23.5495 77.5344 23.5621C77.5344 23.606 77.4769 23.6353 77.4194 23.672C77.362 23.7086 77.52 23.7819 77.6206 23.8113C77.6058 23.8433 77.5864 23.8729 77.5631 23.8992H77.6853C77.6853 23.8992 77.5991 23.9505 77.5847 23.9872C77.6222 23.9931 77.6572 24.0102 77.6853 24.0362C77.7134 24.0623 77.7334 24.0962 77.7427 24.1338C77.7573 24.1902 77.7791 24.2444 77.8074 24.295L77.8505 24.251C77.908 24.251 77.8505 24.361 77.8074 24.361C77.7643 24.361 77.9224 24.4782 78.0086 24.5002C78.107 24.5074 78.1993 24.5518 78.2673 24.6248C78.2026 24.7201 78.2673 24.7421 78.3104 24.7714C78.3535 24.8007 78.411 24.8154 78.3535 24.9327C78.4685 24.9327 78.4756 25.0573 78.6122 24.9693C78.6122 24.9693 78.6122 25.0133 78.6122 25.006C78.6122 24.9986 78.763 25.1086 78.878 25.0939V25.1672C78.9786 25.0353 79.1223 25.1672 79.2085 24.9913C79.2085 25.0279 79.1654 25.0573 79.1438 25.0792C79.1438 25.2478 79.2516 25.0279 79.3091 25.0792C79.3666 25.1305 79.3091 25.1745 79.3091 25.1965C79.3091 25.2185 79.5462 25.3065 79.6971 25.2845L79.9198 25.2478C79.9934 25.233 80.069 25.233 80.1426 25.2478C80.2288 25.2478 80.0995 25.0792 80.2001 25.0792C80.3007 25.0792 80.2001 25.2552 80.2432 25.2772C80.2791 25.1672 80.3007 25.1892 80.3653 25.1892C80.43 25.1892 80.3653 25.2772 80.3653 25.3211C80.3653 25.3651 80.43 25.3211 80.4731 25.2845C80.5162 25.2478 80.5521 25.2185 80.6096 25.2845C80.6028 25.2482 80.6028 25.2108 80.6096 25.1745C80.6096 25.0939 80.7102 25.1086 80.7749 25.1306C80.8395 25.1525 80.897 25.1892 80.8898 25.1306C80.8826 25.0719 80.8898 25.0939 80.8898 25.0939C80.902 25.0881 80.9152 25.0849 80.9286 25.0848C80.9421 25.0846 80.9554 25.0874 80.9677 25.093C80.9799 25.0986 80.9909 25.1068 80.9998 25.117C81.0087 25.1273 81.0153 25.1394 81.0191 25.1525C81.0191 25.1012 81.0191 25.0353 81.0191 25.0133V25.1013C81.0191 25.1013 81.0191 25.0133 81.0191 24.9913L80.9688 24.9547C81.0479 25.006 81.0335 24.7934 81.1197 24.9547H81.2419C81.2419 24.8667 81.2419 24.7861 81.285 24.7788C81.4143 24.9253 81.4287 24.7201 81.5006 24.6908V24.7421C81.5006 24.6321 81.6227 24.5589 81.5868 24.5515C81.5509 24.5442 81.7161 24.4929 81.7377 24.5515C81.7377 24.4929 81.8095 24.4123 81.7377 24.3243H81.8239H81.9173C81.7664 24.1337 82.0969 24.2144 81.9173 24.0678C81.9819 24.0678 82.0179 24.0678 82.0754 24.0678C82.0621 24.0499 82.0526 24.0293 82.0476 24.0074C82.0425 23.9856 82.042 23.9629 82.0461 23.9408C82.0501 23.9187 82.0587 23.8977 82.0711 23.8792C82.0836 23.8607 82.0997 23.845 82.1185 23.8332C82.1688 23.7673 82.1185 23.6353 82.1185 23.5401L82.2981 23.584C82.2981 23.5181 82.1616 23.4594 82.2119 23.4228C82.2622 23.3861 82.2478 23.4228 82.255 23.4228C82.2622 23.4228 82.3053 23.3128 82.3556 23.2835C82.2478 23.1663 82.3125 23.1223 82.1831 23.027C82.3556 23.027 82.2335 23.1296 82.3987 23.1076C82.564 23.0856 82.3987 22.8731 82.3556 22.7411C82.3912 22.734 82.4278 22.734 82.4634 22.7411"
            fill="#E31F26" />
    </g>
    <defs>
        <clipPath id="clip0_868_32317">
            <rect width="192" height="23" fill="white" transform="translate(0 20)" />
        </clipPath>
    </defs>
</svg>